<svg xmlns="http://www.w3.org/2000/svg" viewBox="0 0 264.88 143.99"><defs><style>.a{fill:none;stroke:#95acbf;stroke-linecap:round;stroke-linejoin:round;stroke-width:3px;}</style></defs><title>send_message_1</title><path class="a" d="M326.89,327.41,172,309.06a10.5,10.5,0,0,1-9.19-11.66L174.7,196.78a10.5,10.5,0,0,1,11.66-9.19l154.92,18.35a10.5,10.5,0,0,1,9.19,11.66l-5.65,47.7-6.27,52.92A10.5,10.5,0,0,1,326.89,327.41Z" transform="translate(-105 -186.01)"/><line class="a" x1="57.5" y1="11.23" x2="8.5" y2="11.23"/><line class="a" x1="263.38" y1="142.49" x2="20" y2="142.49"/><line class="a" x1="54.5" y1="33.49" x2="1.5" y2="33.49"/><line class="a" x1="47" y1="103.49" x2="37" y2="103.49"/><line class="a" x1="50.5" y1="62.49" x2="26.5" y2="62.49"/><path class="a" d="M339.33,221.57l-73.27,56.91a17.47,17.47,0,0,1-24.51-3.08l-56.91-73.27" transform="translate(-105 -186.01)"/><line class="a" x1="188.5" y1="84.49" x2="221.5" y2="128.49"/><line class="a" x1="70.73" y1="110.09" x2="113.5" y2="77.49"/></svg>